<?xml version="1.0" encoding="UTF-8"?>
<svg width="1281px" height="500px" viewBox="0 0 1281 500" version="1.1" xmlns="http://www.w3.org/2000/svg" xmlns:xlink="http://www.w3.org/1999/xlink">
    <title>Artboard Copy 2</title>
    <defs>
        <polygon id="path-1" points="0.0845913371 0.454870655 8.47607533 0.454870655 8.47607533 25.6924971 0.0845913371 25.6924971"></polygon>
    </defs>
    <g id="Artboard-Copy-2" stroke="none" stroke-width="1" fill="none" fill-rule="evenodd">
        <g id="Group-4" transform="translate(38.000000, 46.000000)">
            <g id="ipad" transform="translate(160.500000, 217.500000) rotate(-10.000000) translate(-160.500000, -217.500000) translate(31.000000, 32.000000)">
                <path d="M236.742343,1.09982478 C242.552682,0.746348193 247.956232,2.78144051 251.995566,6.35748678 C256.0349,9.93353306 258.710018,15.0505333 259.063495,20.8608725 C259.089422,21.2870641 259.102395,21.713945 259.102395,22.1409245 L259.102395,22.1409245 L259.102395,312.40186 C259.102395,317.590066 257.214571,322.392477 254.045479,326.099567 C250.876387,329.806657 246.426026,332.418424 241.300954,333.225343 L241.300954,333.225343 L24.1009545,367.422458 C18.3507084,368.327807 12.7778723,366.816699 8.41626047,363.641692 C4.05464865,360.466686 0.904261087,355.62778 -0.00108803819,349.877534 C-0.171838367,348.793028 -0.257604909,347.69684 -0.257604909,346.598975 L-0.257604909,346.598975 L-0.257604909,35.3544582 C-0.257604909,29.7819317 1.91126058,24.6908485 5.47068687,20.908301 C9.03011315,17.1257536 13.9801002,14.651742 19.5423434,14.3133585 L19.5423434,14.3133585 Z" id="Rectangle" stroke-opacity="0.2" stroke="#FFFFFF" stroke-width="1.36000001" fill="#333333"></path>
                <path d="M24.321888,25.8670672 L236.121888,9.8584291 C243.611597,9.2923288 250.142121,14.9050227 250.708221,22.3947319 C250.734,22.7357957 250.746903,23.0777105 250.746903,23.4197472 L250.746903,310.925348 C250.746903,317.651411 245.830191,323.36723 239.179686,324.372571 L27.3796862,356.389847 C19.9529902,357.512522 13.0223556,352.402103 11.8996806,344.975407 C11.7979723,344.302589 11.7469031,343.623086 11.7469031,342.942624 L11.7469031,39.4283853 C11.7469031,32.3149269 17.2286621,26.4031998 24.321888,25.8670672 Z" id="Rectangle" fill="#26890C"></path>
                <path d="M85.2070855,202.110676 L184.487085,191.890676 C185.234244,191.813762 185.902287,192.357104 185.9792,193.104263 C185.983963,193.150531 185.98635,193.197014 185.98635,193.243527 L185.98635,208.009153 C185.98635,208.70634 185.459135,209.290612 184.765614,209.362004 L85.4856136,219.582004 C84.7384547,219.658917 84.070412,219.115576 83.9934986,218.368417 C83.9887357,218.322148 83.9863495,218.275666 83.9863495,218.229153 L83.9863495,203.463527 C83.9863495,202.76634 84.5135636,202.182068 85.2070855,202.110676 Z" id="Rectangle" fill="#FFFFFF"></path>
                <path d="M85.3904711,224.172949 L184.670471,212.286484 C185.416252,212.197194 186.093211,212.729385 186.182501,213.475167 C186.188924,213.528818 186.192145,213.582805 186.192145,213.63684 L186.192145,229.685293 C186.192145,230.373867 185.677509,230.953794 184.993818,231.03565 L85.7138184,242.922114 C84.9680373,243.011404 84.2910785,242.479213 84.2017886,241.733432 C84.195365,241.67978 84.1921447,241.625793 84.1921447,241.571758 L84.1921447,225.523305 C84.1921447,224.834732 84.7067805,224.254805 85.3904711,224.172949 Z" id="Rectangle-Copy" fill="#333333"></path>
                <g id="logo" transform="translate(86.410211, 122.161002)" fill="#FFFFFF">
                    <path d="M52.1177047,12.571927 C47.8883977,13.0173986 44.254003,16.905797 43.9978602,21.2562538 C43.7417174,25.6067105 47.1695454,29.1740377 51.6538147,29.2249826 C56.1392645,29.2747427 59.7736592,25.3863442 59.7736592,20.5406558 C59.7736592,15.6949673 56.3458312,12.1276401 52.1177047,12.571927 M52.6429744,25.0510558 C50.3176229,25.528516 48.3381231,23.5866863 48.4715062,20.8818681 C48.6025285,18.1770498 49.6849384,16.3975329 51.8792676,16.1593951 C54.0724164,15.9212574 55.3979849,18.3085587 55.147744,21.2598081 C54.9565222,23.51797 53.5601309,24.8638629 52.6429744,25.0510558" id="Fill-1"></path>
                    <path d="M60.9014641,20.7364107 C60.9014641,25.573504 64.5367683,28.8175497 69.0207037,27.9814067 C73.5046391,27.144081 76.933392,22.9822885 76.6772683,18.6856724 C76.4211446,14.3866909 72.7858403,11.1438279 68.5580286,11.4406764 C64.3290367,11.7363422 60.9014641,15.8993174 60.9014641,20.7364107 M65.5270347,20.6429803 C65.2779927,17.741907 66.6046427,15.1246729 68.7964479,14.9792053 C70.9894334,14.832555 72.0717627,16.4185066 72.2051358,19.0948739 C72.3361484,21.7712412 70.3579764,24.0573295 68.032798,23.9887351 C67.1157098,23.9615338 65.7194225,22.8640222 65.5270347,20.6429803" id="Fill-3"></path>
                    <polygon id="Fill-5" points="0.000239658539 35.9020508 0.000239658539 11.5188094 5.31946093 9.75741051 5.30747801 20.1469935 14.2898801 11.0648167 18.9092984 12.3780284 12.3809998 19.8869056 16.7104313 34.6677943 12.0131239 35.0660539 8.54766146 23.7545522 5.2751241 27.1089895 5.31946093 35.6338351"></polygon>
                    <path d="M39.3137152,30.8043363 L43.9843907,30.4027307 L42.227795,18.4452497 C41.5627809,11.4295188 38.915905,11.64151 33.9720346,13.6036063 L33.8689874,2.52000004 L29.3229271,4.09344579 L30.0490506,31.4509094 L34.5124334,31.2177191 L34.2536171,17.0720178 C35.2325658,16.5667721 38.465373,15.4019983 38.5732131,18.8845425 L39.0081682,23.8274705 L39.3137152,30.8043363" id="Fill-38"></path>
                    <polygon id="Fill-40" points="96.0777132 26.1773695 94.7356108 29.6287408 97.5758457 31.4509094 100.374635 29.4280044 99.1958767 25.887273"></polygon>
                    <path d="M76.6907325,8.8841675 L77.4456617,13.9943266 L80.6038214,13.7183259 L80.8227272,26.0092416 C80.8227272,26.0092416 80.3293017,30.4821114 87.0574007,28.8782275 C87.0574007,28.8782275 89.1624461,28.0691782 89.0949995,26.5967796 L89.0949995,21.7341919 C89.0949995,21.7341919 87.6774366,22.6984176 86.1368131,22.8334566 C84.5961897,22.9684955 84.5867235,22.2234121 84.5867235,22.2234121 L84.1737607,12.7244864 L89.0949995,12.0208623 L89.0949995,8.88772116 L84.0577998,8.99906909 L84.1193301,2.54207395 L80.6144709,1.40727275 L80.6109211,8.67687083 L76.6907325,8.8841675" id="Fill-42"></path>
                    <polygon id="Fill-44" points="91.7268779 0.0442931 101.560083 0.988897407 97.7656466 23.7268725"></polygon>
                    <path d="M18.0026336,15.2391612 L19.2508894,18.3827294 C22.3451235,16.2559165 24.0938818,17.967654 24.0938818,17.967654 L24.0698769,20.0454234 C14.847187,22.4641049 17.1804651,30.7799671 17.1804651,30.7799671 C18.1142565,34.0431536 21.1496785,33.6627675 21.1496785,33.6627675 L28.0630952,33.0598914 L28.1951222,17.5442053 C27.1100999,10.4233296 18.0026336,15.2391612 18.0026336,15.2391612 L18.0026336,15.2391612 Z M24.0590747,30.4426436 C24.0590747,30.4426436 20.7139892,31.5443279 20.3467139,28.3218117 C20.3467139,28.3218117 20.4163282,23.2787053 24.1851005,23.4904296 L24.0590747,30.4426436 Z" id="Fill-47"></path>
                </g>
            </g>
            <g id="Group-3" transform="translate(466.000000, 276.000000) rotate(5.000000) translate(-466.000000, -276.000000) translate(402.000000, 153.000000)">
                <rect id="Rectangle-Copy-4" stroke-opacity="0.2" stroke="#FFFFFF" stroke-width="2" fill="#333333" x="-1" y="-1" width="130" height="248" rx="16"></rect>
                <rect id="Rectangle-Copy-5" fill="#1368CE" x="7" y="7" width="114" height="232" rx="10"></rect>
                <path d="M100.163268,92 L101,94.6975289 L99.0145444,96 L97,94.4582421 L97.9519464,92 L100.163268,92 Z M86.846916,72 L89.3891794,73.1248353 L89.3447273,78.1609062 L92.9988594,78.4180892 L92.9988594,80.8632914 L89.4288182,81.0763512 L89.7280913,88.5186389 C89.7280913,88.5186389 89.7354528,89.1007004 90.8529841,89.1007004 C91.9702323,89.1007004 92.9988594,88.4448991 92.9988594,88.4448991 L92.9988594,88.4448991 L92.9988594,92.2403872 C93.0475585,93.3939327 91.5206149,93.8823083 91.5206149,93.8823083 C86.6393785,94.6735009 86.9978266,91.2164909 86.9978266,91.2164909 L86.9978266,91.2164909 L86.8389882,81.6073388 L84.547865,81.6073388 L84,77.5673607 L86.8435184,77.6731351 L86.846916,72 Z M30.9386339,73 L30.9289775,81.0286896 L37.5792994,74.5981695 L41,75.9158966 L36.1662486,81.291531 L39.3721679,93 L35.8941142,93 L33.3287351,84.0296577 L30.9058607,86.4081375 L30.9386339,93 L27,92.8588988 L27,74.0126434 L30.9386339,73 Z M40.7696475,78.8458231 C40.7696475,78.8455271 47.2308255,75.8018345 48,81.263848 L48,81.263848 L47.9067667,93 L42.9512728,92.9995399 C42.6228131,92.9936429 40.7889222,92.8566189 40.1869396,90.5556343 C40.1869396,90.5556343 38.5314874,84.1065812 45.0732616,82.8842503 L45.0732616,82.8842503 L45.0903918,81.312978 L45.0903918,81.312978 L45.0579214,81.2792608 C44.8494258,81.0731953 43.6441967,80.0338868 41.654802,81.3076507 L41.654802,81.3076507 Z M51.4107769,70 L51.48787,78.4874816 C55.1969378,77.3107511 57.1829748,77.3234168 57.6817079,82.7351988 L57.6817079,82.7351988 L59,92 L55.4955254,92 L55.2660251,86.6415317 L54.940455,82.8306333 C54.8589142,80.1587629 52.4334465,80.8371134 51.699283,81.1596465 L51.699283,81.1596465 L51.8932018,92 L48.5443959,91.8848306 L48,70.9051546 L51.4107769,70 Z M65.1811555,79.0008145 C68.394746,78.9430623 71,81.963717 71,85.7472458 C71,89.531077 68.2376318,92.3173966 64.8290542,91.9708831 C61.4207724,91.6243695 58.8158142,88.6037148 59.0102097,85.2241494 C59.204901,81.8448864 61.9675651,79.0588691 65.1811555,79.0008145 Z M77.8189974,79.0008316 C81.032213,79.058284 83.795401,81.8447297 83.9897916,85.2244478 C84.1841823,88.6035612 81.5789923,91.6240501 78.1707942,91.9708817 C74.7623003,92.3174109 72,89.5309653 72,85.7472654 C72,81.9632632 74.60519,78.9424719 77.8189974,79.0008316 Z M95,72 L102,73.3697382 L99.2983901,91 L95,72 Z M45.1555428,85.4999791 C42.4823876,85.0906611 42.4324011,88.9035638 42.4324011,88.9035638 C42.6935666,91.3671672 45.066241,90.754522 45.066241,90.754522 L45.066241,90.754522 Z M65.0000748,81.7856223 C63.3327714,81.8213017 62.5102154,83.1359971 62.4099109,85.2389654 C62.3087187,87.341329 63.8129903,88.9934669 65.5805982,88.7802976 C66.2776997,88.6962393 67.3387378,87.7419664 67.4840166,85.991559 C67.6745656,83.7050534 66.6664906,81.7496406 65.0000748,81.7856223 Z M78.0000736,81.7851605 C76.3339947,81.7491771 75.3256486,83.7046783 75.515897,85.9912873 C75.6614681,87.7417739 76.7224802,88.6960899 77.4195645,88.780152 C79.1868331,88.993331 80.6910678,87.3414208 80.5904699,85.2386597 C80.4895761,83.1355963 79.6673361,81.8211439 78.0000736,81.7851605 Z" id="Mask-Copy-2" fill="#FFFFFF"></path>
                <rect id="Rectangle" fill="#FFFFFF" x="25" y="122" width="79" height="14" rx="1"></rect>
                <rect id="Rectangle-Copy" fill="#333333" x="25" y="139" width="79" height="14" rx="1"></rect>
            </g>
            <g id="Group-2" transform="translate(663.405580, 162.420772) rotate(-5.000000) translate(-663.405580, -162.420772) translate(598.905580, 38.920772)">
                <rect id="Rectangle-Copy-7" stroke-opacity="0.2" stroke="#FFFFFF" fill="#333333" x="-0.405579788" y="-0.420772035" width="129" height="247" rx="16"></rect>
                <rect id="Rectangle-Copy-8" fill="#E21B3C" x="7" y="7" width="114" height="232" rx="10"></rect>
                <path d="M100.163268,92 L101,94.6975289 L99.0145444,96 L97,94.4582421 L97.9519464,92 L100.163268,92 Z M86.846916,72 L89.3891794,73.1248353 L89.3447273,78.1609062 L92.9988594,78.4180892 L92.9988594,80.8632914 L89.4288182,81.0763512 L89.7280913,88.5186389 C89.7280913,88.5186389 89.7354528,89.1007004 90.8529841,89.1007004 C91.9702323,89.1007004 92.9988594,88.4448991 92.9988594,88.4448991 L92.9988594,88.4448991 L92.9988594,92.2403872 C93.0475585,93.3939327 91.5206149,93.8823083 91.5206149,93.8823083 C86.6393785,94.6735009 86.9978266,91.2164909 86.9978266,91.2164909 L86.9978266,91.2164909 L86.8389882,81.6073388 L84.547865,81.6073388 L84,77.5673607 L86.8435184,77.6731351 L86.846916,72 Z M30.9386339,73 L30.9289775,81.0286896 L37.5792994,74.5981695 L41,75.9158966 L36.1662486,81.291531 L39.3721679,93 L35.8941142,93 L33.3287351,84.0296577 L30.9058607,86.4081375 L30.9386339,93 L27,92.8588988 L27,74.0126434 L30.9386339,73 Z M40.7696475,78.8458231 C40.7696475,78.8455271 47.2308255,75.8018345 48,81.263848 L48,81.263848 L47.9067667,93 L42.9512728,92.9995399 C42.6228131,92.9936429 40.7889222,92.8566189 40.1869396,90.5556343 C40.1869396,90.5556343 38.5314874,84.1065812 45.0732616,82.8842503 L45.0732616,82.8842503 L45.0903918,81.312978 L45.0903918,81.312978 L45.0579214,81.2792608 C44.8494258,81.0731953 43.6441967,80.0338868 41.654802,81.3076507 L41.654802,81.3076507 Z M51.4107769,70 L51.48787,78.4874816 C55.1969378,77.3107511 57.1829748,77.3234168 57.6817079,82.7351988 L57.6817079,82.7351988 L59,92 L55.4955254,92 L55.2660251,86.6415317 L54.940455,82.8306333 C54.8589142,80.1587629 52.4334465,80.8371134 51.699283,81.1596465 L51.699283,81.1596465 L51.8932018,92 L48.5443959,91.8848306 L48,70.9051546 L51.4107769,70 Z M65.1811555,79.0008145 C68.394746,78.9430623 71,81.963717 71,85.7472458 C71,89.531077 68.2376318,92.3173966 64.8290542,91.9708831 C61.4207724,91.6243695 58.8158142,88.6037148 59.0102097,85.2241494 C59.204901,81.8448864 61.9675651,79.0588691 65.1811555,79.0008145 Z M77.8189974,79.0008316 C81.032213,79.058284 83.795401,81.8447297 83.9897916,85.2244478 C84.1841823,88.6035612 81.5789923,91.6240501 78.1707942,91.9708817 C74.7623003,92.3174109 72,89.5309653 72,85.7472654 C72,81.9632632 74.60519,78.9424719 77.8189974,79.0008316 Z M95,72 L102,73.3697382 L99.2983901,91 L95,72 Z M45.1555428,85.4999791 C42.4823876,85.0906611 42.4324011,88.9035638 42.4324011,88.9035638 C42.6935666,91.3671672 45.066241,90.754522 45.066241,90.754522 L45.066241,90.754522 Z M65.0000748,81.7856223 C63.3327714,81.8213017 62.5102154,83.1359971 62.4099109,85.2389654 C62.3087187,87.341329 63.8129903,88.9934669 65.5805982,88.7802976 C66.2776997,88.6962393 67.3387378,87.7419664 67.4840166,85.991559 C67.6745656,83.7050534 66.6664906,81.7496406 65.0000748,81.7856223 Z M78.0000736,81.7851605 C76.3339947,81.7491771 75.3256486,83.7046783 75.515897,85.9912873 C75.6614681,87.7417739 76.7224802,88.6960899 77.4195645,88.780152 C79.1868331,88.993331 80.6910678,87.3414208 80.5904699,85.2386597 C80.4895761,83.1355963 79.6673361,81.8211439 78.0000736,81.7851605 Z" id="Mask-Copy-3" fill="#FFFFFF"></path>
                <rect id="Rectangle-Copy-9" fill="#FFFFFF" x="25" y="122" width="79" height="14" rx="1"></rect>
                <rect id="Rectangle-Copy-10" fill="#333333" x="25" y="139" width="79" height="14" rx="1"></rect>
            </g>
            <g id="Group" transform="translate(987.000000, 217.500000) scale(-1, 1) translate(-987.000000, -217.500000) translate(770.000000, 0.000000)">
                <path d="M289.481623,201.171614 C292.427728,199.45893 296.014762,199.285798 299.104057,200.69047 L299.104057,200.69047 L432.192519,266.512048 C432.716732,266.771333 433.167617,267.157843 433.503979,267.636265 C434.036813,268.394138 434.226812,269.290256 434.106175,270.140408 C433.984047,271.001068 433.543357,271.814487 432.817879,272.389879 L432.817879,272.389879 L204.316939,433.048148 C202.625279,434.237496 200.666076,434.873516 198.687074,434.950629 C196.700604,435.028032 194.694194,434.542273 192.918374,433.487767 L192.918374,433.487767 L53.2323591,344.417863 C52.7613658,344.117516 52.3691036,343.708796 52.0883562,343.225864 C51.6220038,342.423659 51.5102401,341.512891 51.7049005,340.67518 C51.9018779,339.827499 52.4128003,339.054768 53.1874357,338.544811 L53.1874357,338.544811 Z M247.594431,0.551819326 C248.459522,0.120847567 249.4174,0.081323251 250.266749,0.365814609 C251.116098,0.650305967 251.856917,1.258813 252.287889,2.12390394 C252.416912,2.38289193 252.513321,2.65687985 252.57491,2.93959607 L252.57491,2.93959607 L293.318742,189.968403 C293.803573,192.193948 293.543213,194.448866 292.669457,196.433766 C291.795701,198.418666 290.308547,200.133548 288.33979,201.279019 L288.33979,201.279019 L53.1221105,338.134442 C52.2867216,338.620492 51.3334083,338.721919 50.4674297,338.492987 C49.6014512,338.264054 48.8228075,337.704762 48.3367577,336.869373 C48.1620635,336.569121 48.0330412,336.244534 47.9539334,335.906286 L47.9539334,335.906286 L0.431821451,132.712043 C-0.122385281,130.342375 0.173989906,127.937592 1.15348478,125.853932 C2.13297966,123.770273 3.79559423,122.007737 5.97386626,120.922563 L5.97386626,120.922563 Z" id="Combined-Shape" stroke-opacity="0.2" stroke="#FFFFFF" fill="#333333"></path>
                <path d="M14.0472249,123.77674 L243.953706,7.75385701 C245.432879,7.00738888 247.237117,7.60136316 247.983585,9.08053568 C248.099817,9.31085593 248.185854,9.55520703 248.239566,9.80754054 L285.490992,184.809453 C286.391204,189.038522 284.47143,193.367157 280.732494,195.538738 L57.8809232,324.971331 C56.4481914,325.803464 54.6121556,325.316583 53.7800224,323.883851 C53.6325227,323.629893 53.5231134,323.355652 53.4552952,323.069904 L8.82283348,135.013546 C7.75404329,130.510258 9.9151937,125.86198 14.0472249,123.77674 Z" id="Rectangle" fill="#D89E00"></path>
                <g id="Group-48" transform="translate(148.163017, 138.688841) scale(-1, 1) rotate(2.000000) translate(-148.163017, -138.688841) translate(101.163017, 106.688841)">
                    <path d="M48.8232293,25.044632 C44.912006,23.4558918 41.0800752,25.4454684 40.261259,29.4911572 C39.4440609,33.5352232 42.0882226,38.58706 46.1645037,40.7729977 C50.2440212,42.9605583 54.0759519,40.9693588 54.726474,36.3280954 C55.376996,31.6868319 52.7344525,26.6333722 48.8232293,25.044632 M47.6273691,37.248234 C45.4443984,36.5958606 43.9022405,33.7916286 44.3860865,31.2648988 C44.8699324,28.7365462 46.0933022,27.5486424 48.1241608,28.3665434 C50.1534012,29.1844443 51.0401825,32.1038964 50.4155518,34.8107592 C49.9381787,36.8830996 48.4866408,37.5046394 47.6273691,37.248234" id="Fill-1" fill="#FFFFFF"></path>
                    <path d="M55.1641856,37.2174745 C54.5160025,41.8940405 57.3796173,46.776637 61.5621717,48.1223761 C65.7447262,49.4697503 69.4129264,47.0922234 69.7563667,42.8146372 C70.1014194,38.5354158 67.2345798,33.6528193 63.3583805,31.9081005 C59.4821813,30.1633816 55.8123687,32.5409085 55.1641856,37.2174745 M59.3741508,39.349727 C59.5370027,36.4244205 61.0913522,34.532537 63.1003972,35.4449579 C65.1110547,36.3573788 65.8801674,38.4095083 65.6431452,41.0617426 C65.4045107,43.7139768 63.3019467,44.9714171 61.1993827,43.7891943 C60.3706113,43.3215377 59.2516087,41.5899002 59.3741508,39.349727" id="Fill-3" fill="#FFFFFF"></path>
                    <polygon id="Fill-5" fill="#FFFFFF" points="0.219218978 23.0577147 3.46310155 0.0474123514 8.33600124 0.797969711 6.94127326 10.5959555 15.9810604 6.10044592 19.8350382 9.43486359 13.1444321 13.5590118 14.9511316 29.4711412 10.8015407 27.7177514 9.28730951 15.470661 5.98839258 17.1519721 4.89242256 25.2169382"></polygon>
                    <path d="M34.3689071,26.7886849 C34.3713591,26.7555832 34.3652291,26.8279166 34.3689071,26.7886849 C34.3652291,26.8279166 34.3713591,26.7543572 34.3689071,26.7886849" id="Fill-7" fill="#FFFFFF"></path>
                    <path d="M34.368602,26.7899817 C34.3710539,26.76301 34.36615,26.8169535 34.368602,26.7899817 C34.36615,26.8169535 34.3710539,26.76301 34.368602,26.7899817" id="Fill-9" fill="#FFFFFF"></path>
                    <path d="M34.3691599,26.7872371 C34.3752898,26.7173558 34.3605779,26.8730563 34.3691599,26.7872371 C34.3618039,26.8669264 34.3752898,26.7124518 34.3691599,26.7872371" id="Fill-11" fill="#FFFFFF"></path>
                    <path d="M34.3688744,26.7897379 C34.3688744,26.777478 34.3676484,26.8019978 34.3688744,26.7897379 C34.3676484,26.8032238 34.3688744,26.777478 34.3688744,26.7897379" id="Fill-13" fill="#FFFFFF"></path>
                    <path d="M34.3699812,26.775951 C34.3663032,26.8151826 34.3663032,26.8115047 34.3699812,26.775951" id="Fill-15" fill="#FFFFFF"></path>
                    <path d="M34.3693037,26.7837648 C34.3729817,26.7433072 34.3631738,26.8450643 34.3693037,26.7837648 C34.3631738,26.8487422 34.3717557,26.7469852 34.3693037,26.7837648" id="Fill-17" fill="#FFFFFF"></path>
                    <path d="M34.3689047,26.787198 C34.3701307,26.7749381 34.3664527,26.8117177 34.3689047,26.787198 C34.3664527,26.8104918 34.3701307,26.7737121 34.3689047,26.787198" id="Fill-19" fill="#FFFFFF"></path>
                    <path d="M34.368908,26.7875608 C34.373812,26.7348433 34.3627781,26.8464083 34.368908,26.7875608 C34.3627781,26.8500862 34.373812,26.7372953 34.368908,26.7875608" id="Fill-21" fill="#FFFFFF"></path>
                    <path d="M34.368908,26.7896684 C34.373812,26.725917 34.3627781,26.8497418 34.368908,26.7896684 C34.3627781,26.8546458 34.373812,26.7308209 34.368908,26.7896684" id="Fill-23" fill="#FFFFFF"></path>
                    <path d="M34.3683295,26.791181 C34.3695555,26.7825991 34.3683295,26.791181 34.3683295,26.791181 C34.3683295,26.7960849 34.3683295,26.786277 34.3683295,26.791181" id="Fill-25" fill="#FFFFFF"></path>
                    <path d="M34.368602,26.7905557 C34.3698279,26.7733919 34.367376,26.8028156 34.368602,26.7905557 C34.367376,26.8052676 34.3698279,26.7770699 34.368602,26.7905557" id="Fill-27" fill="#FFFFFF"></path>
                    <path d="M34.368602,26.7899817 C34.368602,26.7850778 34.368602,26.7961117 34.368602,26.7899817 C34.368602,26.7948857 34.368602,26.7838518 34.368602,26.7899817" id="Fill-29" fill="#FFFFFF"></path>
                    <path d="M34.368602,26.7911973 C34.3710539,26.7629996 34.36615,26.8206211 34.368602,26.7911973 C34.36615,26.8157171 34.3710539,26.7568697 34.368602,26.7911973" id="Fill-31" fill="#FFFFFF"></path>
                    <path d="M34.3685247,26.7917442 C34.3783326,26.6826312 34.3562648,26.921699 34.3685247,26.7917442 C34.3599428,26.8885973 34.3807846,26.6568854 34.3685247,26.7917442" id="Fill-33" fill="#FFFFFF"></path>
                    <path d="M34.3686974,26.7897379 C34.3699234,26.777478 34.3674715,26.8019978 34.3686974,26.7897379 C34.3674715,26.8032238 34.3686974,26.777478 34.3686974,26.7897379" id="Fill-35" fill="#FFFFFF"></path>
                    <path d="M34.3485542,36.7161252 L38.4425558,38.5036679 L38.4784407,26.2941412 C38.8170072,19.3012226 36.5000893,18.2726634 31.9676676,17.8474401 L33.3219333,7.23932056 L29.1842457,6.62796169 L26.2510433,33.0287165 L30.1422171,34.8788393 L31.7601591,21.2813193 C32.6728843,21.2556454 35.6201286,21.6471719 35.2612794,25.0152618 L34.9929226,29.9269929 L34.3485542,36.7161252" id="Fill-37" fill="#FFFFFF"></path>
                    <polygon id="Fill-39" fill="#FFFFFF" points="84.3775597 58.7497905 82.8011184 60.9687813 85.0379822 63.6537453 87.7050732 63.2117451 87.1097404 59.8435537"></polygon>
                    <path d="M69.8622505,32.5089262 L69.8622505,37.7686868 L72.7078681,39.0064686 L71.2866437,50.8985956 C71.2866437,50.8985956 70.2599398,54.9514376 76.4550206,56.6180572 C76.4550206,56.6180572 78.4339607,56.8422225 78.5686363,55.399768 L79.2071575,50.7377814 C79.2071575,50.7377814 77.8192059,50.9863124 76.4312543,50.3820409 C75.0448871,49.7777695 75.1320302,49.0597911 75.1320302,49.0597911 L76.0145519,39.753686 L80.4841997,41.42193 L80.8961488,38.418441 L76.4011503,36.1280573 L77.3042695,29.963514 L74.3350671,27.2069316 L73.3764932,34.1755458 L69.8622505,32.5089262" id="Fill-41" fill="#FFFFFF"></path>
                    <g id="Group-45" transform="translate(84.468644, 31.659389)">
                        <mask id="mask-2" fill="white">
                            <use xlink:href="#path-1"></use>
                        </mask>
                        <g id="Clip-44"></g>
                        <polygon id="Fill-43" fill="#FFFFFF" mask="url(#mask-2)" points="0.0845913371 0.454870655 8.47689266 5.67311127 2.04617326 25.6924971"></polygon>
                    </g>
                    <path d="M19.1117986,11.8976094 L19.7749739,15.3350024 C22.6650702,14.7892107 23.931689,17.1444036 23.931689,17.1444036 L23.6498778,19.0335623 C15.5278953,17.077157 16.4606291,25.7347584 16.4606291,25.7347584 C16.8419932,29.1393102 19.462531,30.163647 19.462531,30.163647 L25.3989452,32.7377821 L27.4619869,18.6113165 C27.4390132,11.6114206 19.1117986,11.8976094 19.1117986,11.8976094 L19.1117986,11.8976094 Z M22.3342484,28.5356551 C22.3342484,28.5356551 19.359915,28.0305241 19.4533415,24.9184167 C19.4533415,24.9184167 20.1471484,20.3378324 23.3144613,22.2348105 L22.3342484,28.5356551 Z" id="Fill-46" fill="#FFFFFF"></path>
                </g>
                <path d="M208.024778,365.665658 L360.788363,264.881881 C362.171356,263.969469 362.552838,262.108675 361.640426,260.725682 C361.364782,260.307873 360.988977,259.965673 360.547249,259.730258 L292.844635,223.648826 C289.759017,222.004376 286.038591,222.090963 283.032816,223.87718 L122.494458,319.278953 C121.070124,320.12538 120.601638,321.966195 121.448065,323.390529 C121.719852,323.847882 122.108373,324.224733 122.573799,324.48245 L197.673718,366.066928 C200.929878,367.869935 204.917971,367.715333 208.024778,365.665658 Z" id="Rectangle-Copy-2" fill="#646464" opacity="0.5"></path>
                <path d="M135.628181,184.842688 L190.70538,154.670765 C191.189748,154.405423 191.797508,154.582978 192.06285,155.067345 C192.115445,155.163355 192.151918,155.267349 192.170814,155.375178 L193.876364,165.107674 C193.950285,165.529495 193.747404,165.951562 193.371819,166.157312 L138.29462,196.329235 C137.810252,196.594577 137.202492,196.417022 136.93715,195.932655 C136.884555,195.836645 136.848082,195.732651 136.829186,195.624822 L135.123636,185.892326 C135.049715,185.470505 135.252596,185.048438 135.628181,184.842688 Z" id="Rectangle" fill="#FFFFFF"></path>
                <path d="M138.628181,200.842688 L193.70538,170.670765 C194.189748,170.405423 194.797508,170.582978 195.06285,171.067345 C195.115445,171.163355 195.151918,171.267349 195.170814,171.375178 L196.876364,181.107674 C196.950285,181.529495 196.747404,181.951562 196.371819,182.157312 L141.29462,212.329235 C140.810252,212.594577 140.202492,212.417022 139.93715,211.932655 C139.884555,211.836645 139.848082,211.732651 139.829186,211.624822 L138.123636,201.892326 C138.049715,201.470505 138.252596,201.048438 138.628181,200.842688 Z" id="Rectangle-Copy" fill="#333333"></path>
            </g>
        </g>
    </g>
</svg>